<svg version="1.1" viewBox="0.0 0.0 600.0 371.0" fill="none" stroke="none" stroke-linecap="square" stroke-miterlimit="10" width="600" height="371" xmlns:xlink="http://www.w3.org/1999/xlink" xmlns="http://www.w3.org/2000/svg"><path fill="#ffffff" d="M0 0L600.0 0L600.0 371.0L0 371.0L0 0Z" fill-rule="nonzero"/><path stroke="#333333" stroke-width="1.0" stroke-linecap="butt" d="M94.5 332.5L581.5 332.5" fill-rule="nonzero"/><path stroke="#cccccc" stroke-width="1.0" stroke-linecap="butt" d="M94.5 264.5L581.5 264.5" fill-rule="nonzero"/><path stroke="#cccccc" stroke-width="1.0" stroke-linecap="butt" d="M94.5 197.5L581.5 197.5" fill-rule="nonzero"/><path stroke="#cccccc" stroke-width="1.0" stroke-linecap="butt" d="M94.5 129.5L581.5 129.5" fill-rule="nonzero"/><path stroke="#cccccc" stroke-width="1.0" stroke-linecap="butt" d="M94.5 61.5L581.5 61.5" fill-rule="nonzero"/><clipPath id="id_0"><path d="M94.55 61.916668L581.45 61.916668L581.45 332.45L94.55 332.45L94.55 61.916668Z" clip-rule="nonzero"/></clipPath><path stroke="#000000" stroke-width="2.0" stroke-linecap="butt" stroke-opacity="0.0" clip-path="url(#id_0)" d="M207.0 332.0L134.0 332.0L134.0 313.0C134.0 311.89542 134.89543 311.0 136.0 311.0L205.0 311.0C206.10457 311.0 207.0 311.89542 207.0 313.0Z" fill-rule="nonzero"/><path fill="#6d9eeb" clip-path="url(#id_0)" d="M207.0 332.0L134.0 332.0L134.0 313.0C134.0 311.89542 134.89543 311.0 136.0 311.0L205.0 311.0C206.10457 311.0 207.0 311.89542 207.0 313.0Z" fill-rule="nonzero"/><path stroke="#000000" stroke-width="2.0" stroke-linecap="butt" stroke-opacity="0.0" clip-path="url(#id_0)" d="M319.0 332.0L246.0 332.0L246.0 297.0C246.0 295.89542 246.89543 295.0 248.0 295.0L317.0 295.0C318.10458 295.0 319.0 295.89542 319.0 297.0Z" fill-rule="nonzero"/><path fill="#6d9eeb" clip-path="url(#id_0)" d="M319.0 332.0L246.0 332.0L246.0 297.0C246.0 295.89542 246.89543 295.0 248.0 295.0L317.0 295.0C318.10458 295.0 319.0 295.89542 319.0 297.0Z" fill-rule="nonzero"/><path stroke="#000000" stroke-width="2.0" stroke-linecap="butt" stroke-opacity="0.0" clip-path="url(#id_0)" d="M431.0 332.0L358.0 332.0L358.0 267.0C358.0 265.89542 358.89542 265.0 360.0 265.0L429.0 265.0C430.10458 265.0 431.0 265.89542 431.0 267.0Z" fill-rule="nonzero"/><path fill="#6d9eeb" clip-path="url(#id_0)" d="M431.0 332.0L358.0 332.0L358.0 267.0C358.0 265.89542 358.89542 265.0 360.0 265.0L429.0 265.0C430.10458 265.0 431.0 265.89542 431.0 267.0Z" fill-rule="nonzero"/><path stroke="#000000" stroke-width="2.0" stroke-linecap="butt" stroke-opacity="0.0" clip-path="url(#id_0)" d="M543.0 332.0L470.0 332.0L470.0 84.0C470.0 82.89543 470.89542 82.0 472.0 82.0L541.0 82.0C542.10455 82.0 543.0 82.89543 543.0 84.0Z" fill-rule="nonzero"/><path fill="#6d9eeb" clip-path="url(#id_0)" d="M543.0 332.0L470.0 332.0L470.0 84.0C470.0 82.89543 470.89542 82.0 472.0 82.0L541.0 82.0C542.10455 82.0 543.0 82.89543 543.0 84.0Z" fill-rule="nonzero"/><path fill="#000000" d="M29.550013 236.24583L20.956263 236.24583L20.956263 232.43333Q20.956263 231.27708 21.190638 230.68333Q21.425013 230.08958 22.018763 229.73021Q22.596888 229.37083 23.300013 229.37083Q24.221888 229.37083 24.846888 229.96458Q25.471888 230.55833 25.643763 231.79271Q25.862513 231.33958 26.065638 231.10521Q26.518763 230.60521 27.206263 230.16771L29.550013 228.66771L29.550013 230.10521L27.768763 231.23021Q26.987513 231.73021 26.581263 232.05833Q26.175013 232.37083 26.018763 232.63646Q25.846888 232.88646 25.768763 233.15208Q25.737513 233.33958 25.737513 233.77708L25.737513 235.10521L29.550013 235.10521L29.550013 236.24583ZM24.753138 235.10521L24.753138 232.65208Q24.753138 231.88646 24.596888 231.44896Q24.425013 230.99583 24.081263 230.77708Q23.721888 230.54271 23.300013 230.54271Q22.690638 230.54271 22.300013 230.99583Q21.909388 231.43333 21.909388 232.38646L21.909388 235.10521L24.753138 235.10521ZM27.550013 223.13646L27.675013 222.04271Q28.628138 222.29271 29.159388 222.99583Q29.690638 223.69896 29.690638 224.77708Q29.690638 226.13646 28.846888 226.94896Q28.003138 227.74583 26.487513 227.74583Q24.925013 227.74583 24.065638 226.93333Q23.190638 226.12083 23.190638 224.83958Q23.190638 223.58958 24.034388 222.80833Q24.878138 222.01146 26.425013 222.01146Q26.518763 222.01146 26.706263 222.01146L26.706263 226.65208Q27.737513 226.58958 28.284388 226.07396Q28.815638 225.55833 28.815638 224.77708Q28.815638 224.19896 28.518763 223.79271Q28.206263 223.37083 27.550013 223.13646ZM25.846888 226.58958L25.846888 223.12083Q25.050013 223.18333 24.659388 223.51146Q24.050013 224.02708 24.050013 224.82396Q24.050013 225.55833 24.534388 226.05833Q25.018763 226.54271 25.846888 226.58958ZM29.550013 218.66771L23.331263 221.02708L23.331263 219.91771L27.050013 218.57396Q27.659388 218.37083 28.300013 218.18333Q27.815638 218.04271 27.128138 217.79271L23.331263 216.40208L23.331263 215.32396L29.550013 217.68333L29.550013 218.66771ZM27.550013 211.13646L27.675013 210.04271Q28.628138 210.29271 29.159388 210.99583Q29.690638 211.69896 29.690638 212.77708Q29.690638 214.13646 28.846888 214.94896Q28.003138 215.74583 26.487513 215.74583Q24.925013 215.74583 24.065638 214.93333Q23.190638 214.12083 23.190638 212.83958Q23.190638 211.58958 24.034388 210.80833Q24.878138 210.01146 26.425013 210.01146Q26.518763 210.01146 26.706263 210.01146L26.706263 214.65208Q27.737513 214.58958 28.284388 214.07396Q28.815638 213.55833 28.815638 212.77708Q28.815638 212.19896 28.518763 211.79271Q28.206263 211.37083 27.550013 211.13646ZM25.846888 214.58958L25.846888 211.12083Q25.050013 211.18333 24.659388 211.51146Q24.050013 212.02708 24.050013 212.82396Q24.050013 213.55833 24.534388 214.05833Q25.018763 214.54271 25.846888 214.58958ZM29.550013 208.38646L23.331263 208.38646L23.331263 207.44896L24.206263 207.44896Q23.190638 206.76146 23.190638 205.46458Q23.190638 204.90208 23.393763 204.43333Q23.596888 203.94896 23.925013 203.71458Q24.253138 203.48021 24.690638 203.38646Q24.987513 203.33958 25.721888 203.33958L29.550013 203.33958L29.550013 204.38646L25.768763 204.38646Q25.112513 204.38646 24.800013 204.51146Q24.487513 204.63646 24.300013 204.94896Q24.096888 205.26146 24.096888 205.68333Q24.096888 206.35521 24.534388 206.85521Q24.956263 207.33958 26.143763 207.33958L29.550013 207.33958L29.550013 208.38646ZM29.550013 197.30833L28.628138 197.30833Q29.690638 198.04271 29.690638 199.29271Q29.690638 199.83958 29.487513 200.32396Q29.268763 200.79271 28.956263 201.02708Q28.628138 201.26146 28.159388 201.35521Q27.862513 201.41771 27.175013 201.41771L23.331263 201.41771L23.331263 200.35521L26.784388 200.35521Q27.596888 200.35521 27.893763 200.29271Q28.300013 200.19896 28.550013 199.88646Q28.784388 199.55833 28.784388 199.07396Q28.784388 198.60521 28.550013 198.19896Q28.300013 197.77708 27.878138 197.60521Q27.456263 197.41771 26.659388 197.41771L23.331263 197.41771L23.331263 196.37083L29.550013 196.37083L29.550013 197.30833ZM27.550013 190.13646L27.675013 189.04271Q28.628138 189.29271 29.159388 189.99583Q29.690638 190.69896 29.690638 191.77708Q29.690638 193.13646 28.846888 193.94896Q28.003138 194.74583 26.487513 194.74583Q24.925013 194.74583 24.065638 193.93333Q23.190638 193.12083 23.190638 191.83958Q23.190638 190.58958 24.034388 189.80833Q24.878138 189.01146 26.425013 189.01146Q26.518763 189.01146 26.706263 189.01146L26.706263 193.65208Q27.737513 193.58958 28.284388 193.07396Q28.815638 192.55833 28.815638 191.77708Q28.815638 191.19896 28.518763 190.79271Q28.206263 190.37083 27.550013 190.13646ZM25.846888 193.58958L25.846888 190.12083Q25.050013 190.18333 24.659388 190.51146Q24.050013 191.02708 24.050013 191.82396Q24.050013 192.55833 24.534388 193.05833Q25.018763 193.54271 25.846888 193.58958ZM32.08126 182.37083Q30.971888 183.24583 29.503138 183.85521Q28.018763 184.44896 26.440638 184.44896Q25.050013 184.44896 23.768763 184.01146Q22.284388 183.48021 20.815638 182.37083L20.815638 181.62083Q22.034388 182.32396 22.550013 182.55833Q23.362513 182.91771 24.237513 183.12083Q25.331263 183.37083 26.440638 183.37083Q29.268763 183.37083 32.08126 181.62083L32.08126 182.37083ZM30.784388 178.19896L29.737513 178.19896Q29.628138 178.98021 29.378138 179.48021Q29.128138 179.98021 28.565638 180.33958Q27.987513 180.69896 27.159388 180.76146L26.971888 179.69896Q27.815638 179.57396 28.206263 179.26146Q28.768763 178.80833 28.846888 178.19896L25.487513 178.19896Q25.362513 178.83958 24.971888 179.52708Q24.690638 180.02708 24.206263 180.30833Q23.706263 180.57396 23.065638 180.57396Q21.940638 180.57396 21.253138 179.77708Q20.784388 179.24583 20.675013 178.19896L20.175013 178.19896L20.175013 177.57396L20.675013 177.57396Q20.753138 176.65208 21.206263 176.12083Q21.784388 175.41771 22.784388 175.27708L22.956263 176.37083Q22.331263 176.46458 22.003138 176.76146Q21.675013 177.05833 21.565638 177.57396L24.596888 177.57396Q24.800013 176.77708 24.909388 176.51146Q25.128138 176.02708 25.440638 175.71458Q25.753138 175.40208 26.190638 175.24583Q26.612513 175.07396 27.112513 175.07396Q28.206263 175.07396 28.940638 175.77708Q29.675013 176.46458 29.721888 177.57396L30.784388 177.57396L30.784388 178.19896ZM21.550013 178.19896Q21.643763 178.80833 22.050013 179.16771Q22.440638 179.51146 22.987513 179.51146Q23.518763 179.51146 23.893763 179.21458Q24.253138 178.91771 24.471888 178.19896L21.550013 178.19896ZM28.846888 177.57396Q28.768763 176.96458 28.315638 176.55833Q27.846888 176.15208 27.175013 176.15208Q26.596888 176.15208 26.253138 176.44896Q25.909388 176.73021 25.628138 177.57396L28.846888 177.57396ZM32.08126 172.69896L32.08126 173.44896Q29.268763 171.69896 26.440638 171.69896Q25.346888 171.69896 24.253138 171.94896Q23.378138 172.15208 22.565638 172.51146Q22.050013 172.74583 20.815638 173.44896L20.815638 172.69896Q22.284388 171.60521 23.768763 171.07396Q25.050013 170.62083 26.440638 170.62083Q28.018763 170.62083 29.503138 171.23021Q30.971888 171.83958 32.08126 172.69896Z" fill-rule="nonzero"/><path fill="#000000" d="M82.05 332.21564Q82.05 330.6844 82.3625 329.7625Q82.675 328.825 83.28438 328.325Q83.90938 327.825 84.84688 327.825Q85.53438 327.825 86.05 328.10626Q86.58125 328.3875 86.925 328.91876Q87.26875 329.4344 87.45625 330.1844Q87.64375 330.9344 87.64375 332.21564Q87.64375 333.73126 87.33125 334.65314Q87.03438 335.575 86.40938 336.09064Q85.8 336.59064 84.84688 336.59064Q83.6125 336.59064 82.89375 335.7Q82.05 334.6375 82.05 332.21564ZM83.12813 332.21564Q83.12813 334.325 83.62813 335.02814Q84.12813 335.73126 84.84688 335.73126Q85.58125 335.73126 86.06563 335.02814Q86.56563 334.325 86.56563 332.21564Q86.56563 330.09064 86.06563 329.40314Q85.58125 328.7 84.83125 328.7Q84.1125 328.7 83.675 329.3094Q83.12813 330.09064 83.12813 332.21564Z" fill-rule="nonzero"/><path fill="#000000" d="M55.01875 268.81668L53.971874 268.81668L53.971874 262.09793Q53.58125 262.4573 52.95625 262.8323Q52.346874 263.19168 51.8625 263.36356L51.8625 262.34793Q52.7375 261.92606 53.39375 261.34793Q54.065624 260.75418 54.346874 260.19168L55.01875 260.19168L55.01875 268.81668ZM58.05 264.5823Q58.05 263.05106 58.3625 262.12918Q58.675 261.19168 59.284374 260.69168Q59.909374 260.19168 60.846874 260.19168Q61.534374 260.19168 62.05 260.47293Q62.58125 260.75418 62.925 261.28543Q63.26875 261.80106 63.45625 262.55106Q63.64375 263.30106 63.64375 264.5823Q63.64375 266.09793 63.33125 267.0198Q63.034374 267.94168 62.409374 268.4573Q61.8 268.9573 60.846874 268.9573Q59.6125 268.9573 58.89375 268.06668Q58.05 267.00418 58.05 264.5823ZM59.128124 264.5823Q59.128124 266.69168 59.628124 267.3948Q60.128124 268.09793 60.846874 268.09793Q61.58125 268.09793 62.065624 267.3948Q62.565624 266.69168 62.565624 264.5823Q62.565624 262.4573 62.065624 261.7698Q61.58125 261.06668 60.83125 261.06668Q60.1125 261.06668 59.675 261.67606Q59.128124 262.4573 59.128124 264.5823ZM65.6125 268.81668L65.6125 267.61356L66.81563 267.61356L66.81563 268.81668Q66.81563 269.47293 66.58125 269.87918Q66.34688 270.30106 65.84688 270.5198L65.55 270.06668Q65.87813 269.92606 66.03438 269.62918Q66.19063 269.34793 66.22188 268.81668L65.6125 268.81668ZM68.05 264.5823Q68.05 263.05106 68.3625 262.12918Q68.675 261.19168 69.28438 260.69168Q69.90938 260.19168 70.84688 260.19168Q71.53438 260.19168 72.05 260.47293Q72.58125 260.75418 72.925 261.28543Q73.26875 261.80106 73.45625 262.55106Q73.64375 263.30106 73.64375 264.5823Q73.64375 266.09793 73.33125 267.0198Q73.03438 267.94168 72.40938 268.4573Q71.8 268.9573 70.84688 268.9573Q69.6125 268.9573 68.89375 268.06668Q68.05 267.00418 68.05 264.5823ZM69.12813 264.5823Q69.12813 266.69168 69.62813 267.3948Q70.12813 268.09793 70.84688 268.09793Q71.58125 268.09793 72.06563 267.3948Q72.56563 266.69168 72.56563 264.5823Q72.56563 262.4573 72.06563 261.7698Q71.58125 261.06668 70.83125 261.06668Q70.1125 261.06668 69.675 261.67606Q69.12813 262.4573 69.12813 264.5823ZM75.05 264.5823Q75.05 263.05106 75.3625 262.12918Q75.675 261.19168 76.28438 260.69168Q76.90938 260.19168 77.84688 260.19168Q78.53438 260.19168 79.05 260.47293Q79.58125 260.75418 79.925 261.28543Q80.26875 261.80106 80.45625 262.55106Q80.64375 263.30106 80.64375 264.5823Q80.64375 266.09793 80.33125 267.0198Q80.03438 267.94168 79.40938 268.4573Q78.8 268.9573 77.84688 268.9573Q76.6125 268.9573 75.89375 268.06668Q75.05 267.00418 75.05 264.5823ZM76.12813 264.5823Q76.12813 266.69168 76.62813 267.3948Q77.12813 268.09793 77.84688 268.09793Q78.58125 268.09793 79.06563 267.3948Q79.56563 266.69168 79.56563 264.5823Q79.56563 262.4573 79.06563 261.7698Q78.58125 261.06668 77.83125 261.06668Q77.1125 261.06668 76.675 261.67606Q76.12813 262.4573 76.12813 264.5823ZM82.05 264.5823Q82.05 263.05106 82.3625 262.12918Q82.675 261.19168 83.28438 260.69168Q83.90938 260.19168 84.84688 260.19168Q85.53438 260.19168 86.05 260.47293Q86.58125 260.75418 86.925 261.28543Q87.26875 261.80106 87.45625 262.55106Q87.64375 263.30106 87.64375 264.5823Q87.64375 266.09793 87.33125 267.0198Q87.03438 267.94168 86.40938 268.4573Q85.8 268.9573 84.84688 268.9573Q83.6125 268.9573 82.89375 268.06668Q82.05 267.00418 82.05 264.5823ZM83.12813 264.5823Q83.12813 266.69168 83.62813 267.3948Q84.12813 268.09793 84.84688 268.09793Q85.58125 268.09793 86.06563 267.3948Q86.56563 266.69168 86.56563 264.5823Q86.56563 262.4573 86.06563 261.7698Q85.58125 261.06668 84.83125 261.06668Q84.1125 261.06668 83.675 261.67606Q83.12813 262.4573 83.12813 264.5823Z" fill-rule="nonzero"/><path fill="#000000" d="M56.596874 200.16771L56.596874 201.18333L50.909374 201.18333Q50.909374 200.80833 51.034374 200.44896Q51.253124 199.87083 51.721874 199.30833Q52.20625 198.74583 53.1125 198.01146Q54.51875 196.85521 55.003124 196.18333Q55.503124 195.51146 55.503124 194.91771Q55.503124 194.29271 55.05 193.87083Q54.596874 193.43333 53.878124 193.43333Q53.1125 193.43333 52.659374 193.88646Q52.20625 194.33958 52.190624 195.15208L51.1125 195.04271Q51.221874 193.82396 51.940624 193.19896Q52.675 192.55833 53.909374 192.55833Q55.14375 192.55833 55.8625 193.24583Q56.58125 193.93333 56.58125 194.94896Q56.58125 195.46458 56.3625 195.96458Q56.159374 196.44896 55.659374 197.01146Q55.175 197.55833 54.05 198.51146Q53.096874 199.30833 52.815624 199.60521Q52.55 199.88646 52.378124 200.16771L56.596874 200.16771ZM58.05 196.94896Q58.05 195.41771 58.3625 194.49583Q58.675 193.55833 59.284374 193.05833Q59.909374 192.55833 60.846874 192.55833Q61.534374 192.55833 62.05 192.83958Q62.58125 193.12083 62.925 193.65208Q63.26875 194.16771 63.45625 194.91771Q63.64375 195.66771 63.64375 196.94896Q63.64375 198.46458 63.33125 199.38646Q63.034374 200.30833 62.409374 200.82396Q61.8 201.32396 60.846874 201.32396Q59.6125 201.32396 58.89375 200.43333Q58.05 199.37083 58.05 196.94896ZM59.128124 196.94896Q59.128124 199.05833 59.628124 199.76146Q60.128124 200.46458 60.846874 200.46458Q61.58125 200.46458 62.065624 199.76146Q62.565624 199.05833 62.565624 196.94896Q62.565624 194.82396 62.065624 194.13646Q61.58125 193.43333 60.83125 193.43333Q60.1125 193.43333 59.675 194.04271Q59.128124 194.82396 59.128124 196.94896ZM65.6125 201.18333L65.6125 199.98021L66.81563 199.98021L66.81563 201.18333Q66.81563 201.83958 66.58125 202.24583Q66.34688 202.66771 65.84688 202.88646L65.55 202.43333Q65.87813 202.29271 66.03438 201.99583Q66.19063 201.71458 66.22188 201.18333L65.6125 201.18333ZM68.05 196.94896Q68.05 195.41771 68.3625 194.49583Q68.675 193.55833 69.28438 193.05833Q69.90938 192.55833 70.84688 192.55833Q71.53438 192.55833 72.05 192.83958Q72.58125 193.12083 72.925 193.65208Q73.26875 194.16771 73.45625 194.91771Q73.64375 195.66771 73.64375 196.94896Q73.64375 198.46458 73.33125 199.38646Q73.03438 200.30833 72.40938 200.82396Q71.8 201.32396 70.84688 201.32396Q69.6125 201.32396 68.89375 200.43333Q68.05 199.37083 68.05 196.94896ZM69.12813 196.94896Q69.12813 199.05833 69.62813 199.76146Q70.12813 200.46458 70.84688 200.46458Q71.58125 200.46458 72.06563 199.76146Q72.56563 199.05833 72.56563 196.94896Q72.56563 194.82396 72.06563 194.13646Q71.58125 193.43333 70.83125 193.43333Q70.1125 193.43333 69.675 194.04271Q69.12813 194.82396 69.12813 196.94896ZM75.05 196.94896Q75.05 195.41771 75.3625 194.49583Q75.675 193.55833 76.28438 193.05833Q76.90938 192.55833 77.84688 192.55833Q78.53438 192.55833 79.05 192.83958Q79.58125 193.12083 79.925 193.65208Q80.26875 194.16771 80.45625 194.91771Q80.64375 195.66771 80.64375 196.94896Q80.64375 198.46458 80.33125 199.38646Q80.03438 200.30833 79.40938 200.82396Q78.8 201.32396 77.84688 201.32396Q76.6125 201.32396 75.89375 200.43333Q75.05 199.37083 75.05 196.94896ZM76.12813 196.94896Q76.12813 199.05833 76.62813 199.76146Q77.12813 200.46458 77.84688 200.46458Q78.58125 200.46458 79.06563 199.76146Q79.56563 199.05833 79.56563 196.94896Q79.56563 194.82396 79.06563 194.13646Q78.58125 193.43333 77.83125 193.43333Q77.1125 193.43333 76.675 194.04271Q76.12813 194.82396 76.12813 196.94896ZM82.05 196.94896Q82.05 195.41771 82.3625 194.49583Q82.675 193.55833 83.28438 193.05833Q83.90938 192.55833 84.84688 192.55833Q85.53438 192.55833 86.05 192.83958Q86.58125 193.12083 86.925 193.65208Q87.26875 194.16771 87.45625 194.91771Q87.64375 195.66771 87.64375 196.94896Q87.64375 198.46458 87.33125 199.38646Q87.03438 200.30833 86.40938 200.82396Q85.8 201.32396 84.84688 201.32396Q83.6125 201.32396 82.89375 200.43333Q82.05 199.37083 82.05 196.94896ZM83.12813 196.94896Q83.12813 199.05833 83.62813 199.76146Q84.12813 200.46458 84.84688 200.46458Q85.58125 200.46458 86.06563 199.76146Q86.56563 199.05833 86.56563 196.94896Q86.56563 194.82396 86.06563 194.13646Q85.58125 193.43333 84.83125 193.43333Q84.1125 193.43333 83.675 194.04271Q83.12813 194.82396 83.12813 196.94896Z" fill-rule="nonzero"/><path fill="#000000" d="M51.05 131.28438L52.1125 131.14375Q52.284374 132.03438 52.721874 132.44063Q53.159374 132.83125 53.784374 132.83125Q54.534374 132.83125 55.05 132.31563Q55.565624 131.8 55.565624 131.03438Q55.565624 130.31563 55.08125 129.84688Q54.6125 129.3625 53.878124 129.3625Q53.58125 129.3625 53.128124 129.4875L53.253124 128.55Q53.3625 128.56563 53.425 128.56563Q54.096874 128.56563 54.628124 128.22188Q55.175 127.8625 55.175 127.12813Q55.175 126.55 54.784374 126.175Q54.39375 125.78438 53.76875 125.78438Q53.159374 125.78438 52.7375 126.175Q52.33125 126.56563 52.221874 127.33125L51.159374 127.14375Q51.346874 126.09688 52.034374 125.51875Q52.721874 124.925 53.7375 124.925Q54.440624 124.925 55.034374 125.2375Q55.628124 125.53438 55.940624 126.05Q56.253124 126.56563 56.253124 127.15938Q56.253124 127.70625 55.95625 128.175Q55.659374 128.62813 55.08125 128.89375Q55.83125 129.06563 56.253124 129.62813Q56.675 130.175 56.675 131.01875Q56.675 132.14375 55.846874 132.925Q55.034374 133.70625 53.784374 133.70625Q52.659374 133.70625 51.909374 133.03438Q51.159374 132.34688 51.05 131.28438ZM58.05 129.31563Q58.05 127.78438 58.3625 126.8625Q58.675 125.925 59.284374 125.425Q59.909374 124.925 60.846874 124.925Q61.534374 124.925 62.05 125.20625Q62.58125 125.4875 62.925 126.01875Q63.26875 126.53438 63.45625 127.28438Q63.64375 128.03438 63.64375 129.31563Q63.64375 130.83125 63.33125 131.75313Q63.034374 132.675 62.409374 133.19063Q61.8 133.69063 60.846874 133.69063Q59.6125 133.69063 58.89375 132.8Q58.05 131.7375 58.05 129.31563ZM59.128124 129.31563Q59.128124 131.425 59.628124 132.12813Q60.128124 132.83125 60.846874 132.83125Q61.58125 132.83125 62.065624 132.12813Q62.565624 131.425 62.565624 129.31563Q62.565624 127.19063 62.065624 126.50313Q61.58125 125.8 60.83125 125.8Q60.1125 125.8 59.675 126.40938Q59.128124 127.19063 59.128124 129.31563ZM65.6125 133.55L65.6125 132.34688L66.81563 132.34688L66.81563 133.55Q66.81563 134.20625 66.58125 134.6125Q66.34688 135.03438 65.84688 135.25313L65.55 134.8Q65.87813 134.65938 66.03438 134.3625Q66.19063 134.08125 66.22188 133.55L65.6125 133.55ZM68.05 129.31563Q68.05 127.78438 68.3625 126.8625Q68.675 125.925 69.28438 125.425Q69.90938 124.925 70.84688 124.925Q71.53438 124.925 72.05 125.20625Q72.58125 125.4875 72.925 126.01875Q73.26875 126.53438 73.45625 127.28438Q73.64375 128.03438 73.64375 129.31563Q73.64375 130.83125 73.33125 131.75313Q73.03438 132.675 72.40938 133.19063Q71.8 133.69063 70.84688 133.69063Q69.6125 133.69063 68.89375 132.8Q68.05 131.7375 68.05 129.31563ZM69.12813 129.31563Q69.12813 131.425 69.62813 132.12813Q70.12813 132.83125 70.84688 132.83125Q71.58125 132.83125 72.06563 132.12813Q72.56563 131.425 72.56563 129.31563Q72.56563 127.19063 72.06563 126.50313Q71.58125 125.8 70.83125 125.8Q70.1125 125.8 69.675 126.40938Q69.12813 127.19063 69.12813 129.31563ZM75.05 129.31563Q75.05 127.78438 75.3625 126.8625Q75.675 125.925 76.28438 125.425Q76.90938 124.925 77.84688 124.925Q78.53438 124.925 79.05 125.20625Q79.58125 125.4875 79.925 126.01875Q80.26875 126.53438 80.45625 127.28438Q80.64375 128.03438 80.64375 129.31563Q80.64375 130.83125 80.33125 131.75313Q80.03438 132.675 79.40938 133.19063Q78.8 133.69063 77.84688 133.69063Q76.6125 133.69063 75.89375 132.8Q75.05 131.7375 75.05 129.31563ZM76.12813 129.31563Q76.12813 131.425 76.62813 132.12813Q77.12813 132.83125 77.84688 132.83125Q78.58125 132.83125 79.06563 132.12813Q79.56563 131.425 79.56563 129.31563Q79.56563 127.19063 79.06563 126.50313Q78.58125 125.8 77.83125 125.8Q77.1125 125.8 76.675 126.40938Q76.12813 127.19063 76.12813 129.31563ZM82.05 129.31563Q82.05 127.78438 82.3625 126.8625Q82.675 125.925 83.28438 125.425Q83.90938 124.925 84.84688 124.925Q85.53438 124.925 86.05 125.20625Q86.58125 125.4875 86.925 126.01875Q87.26875 126.53438 87.45625 127.28438Q87.64375 128.03438 87.64375 129.31563Q87.64375 130.83125 87.33125 131.75313Q87.03438 132.675 86.40938 133.19063Q85.8 133.69063 84.84688 133.69063Q83.6125 133.69063 82.89375 132.8Q82.05 131.7375 82.05 129.31563ZM83.12813 129.31563Q83.12813 131.425 83.62813 132.12813Q84.12813 132.83125 84.84688 132.83125Q85.58125 132.83125 86.06563 132.12813Q86.56563 131.425 86.56563 129.31563Q86.56563 127.19063 86.06563 126.50313Q85.58125 125.8 84.83125 125.8Q84.1125 125.8 83.675 126.40938Q83.12813 127.19063 83.12813 129.31563Z" fill-rule="nonzero"/><path fill="#000000" d="M54.425 65.916664L54.425 63.854164L50.70625 63.854164L50.70625 62.885414L54.628124 57.322914L55.4875 57.322914L55.4875 62.885414L56.64375 62.885414L56.64375 63.854164L55.4875 63.854164L55.4875 65.916664L54.425 65.916664ZM54.425 62.885414L54.425 59.02604L51.7375 62.885414L54.425 62.885414ZM58.05 61.68229Q58.05 60.15104 58.3625 59.229164Q58.675 58.291664 59.284374 57.791664Q59.909374 57.291664 60.846874 57.291664Q61.534374 57.291664 62.05 57.572914Q62.58125 57.854164 62.925 58.385414Q63.26875 58.90104 63.45625 59.65104Q63.64375 60.40104 63.64375 61.68229Q63.64375 63.197914 63.33125 64.11979Q63.034374 65.041664 62.409374 65.55729Q61.8 66.05729 60.846874 66.05729Q59.6125 66.05729 58.89375 65.166664Q58.05 64.104164 58.05 61.68229ZM59.128124 61.68229Q59.128124 63.791664 59.628124 64.49479Q60.128124 65.197914 60.846874 65.197914Q61.58125 65.197914 62.065624 64.49479Q62.565624 63.791664 62.565624 61.68229Q62.565624 59.55729 62.065624 58.86979Q61.58125 58.166664 60.83125 58.166664Q60.1125 58.166664 59.675 58.77604Q59.128124 59.55729 59.128124 61.68229ZM65.6125 65.916664L65.6125 64.71354L66.81563 64.71354L66.81563 65.916664Q66.81563 66.572914 66.58125 66.979164Q66.34688 67.40104 65.84688 67.61979L65.55 67.166664Q65.87813 67.02604 66.03438 66.729164Q66.19063 66.447914 66.22188 65.916664L65.6125 65.916664ZM68.05 61.68229Q68.05 60.15104 68.3625 59.229164Q68.675 58.291664 69.28438 57.791664Q69.90938 57.291664 70.84688 57.291664Q71.53438 57.291664 72.05 57.572914Q72.58125 57.854164 72.925 58.385414Q73.26875 58.90104 73.45625 59.65104Q73.64375 60.40104 73.64375 61.68229Q73.64375 63.197914 73.33125 64.11979Q73.03438 65.041664 72.40938 65.55729Q71.8 66.05729 70.84688 66.05729Q69.6125 66.05729 68.89375 65.166664Q68.05 64.104164 68.05 61.68229ZM69.12813 61.68229Q69.12813 63.791664 69.62813 64.49479Q70.12813 65.197914 70.84688 65.197914Q71.58125 65.197914 72.06563 64.49479Q72.56563 63.791664 72.56563 61.68229Q72.56563 59.55729 72.06563 58.86979Q71.58125 58.166664 70.83125 58.166664Q70.1125 58.166664 69.675 58.77604Q69.12813 59.55729 69.12813 61.68229ZM75.05 61.68229Q75.05 60.15104 75.3625 59.229164Q75.675 58.291664 76.28438 57.791664Q76.90938 57.291664 77.84688 57.291664Q78.53438 57.291664 79.05 57.572914Q79.58125 57.854164 79.925 58.385414Q80.26875 58.90104 80.45625 59.65104Q80.64375 60.40104 80.64375 61.68229Q80.64375 63.197914 80.33125 64.11979Q80.03438 65.041664 79.40938 65.55729Q78.8 66.05729 77.84688 66.05729Q76.6125 66.05729 75.89375 65.166664Q75.05 64.104164 75.05 61.68229ZM76.12813 61.68229Q76.12813 63.791664 76.62813 64.49479Q77.12813 65.197914 77.84688 65.197914Q78.58125 65.197914 79.06563 64.49479Q79.56563 63.791664 79.56563 61.68229Q79.56563 59.55729 79.06563 58.86979Q78.58125 58.166664 77.83125 58.166664Q77.1125 58.166664 76.675 58.77604Q76.12813 59.55729 76.12813 61.68229ZM82.05 61.68229Q82.05 60.15104 82.3625 59.229164Q82.675 58.291664 83.28438 57.791664Q83.90938 57.291664 84.84688 57.291664Q85.53438 57.291664 86.05 57.572914Q86.58125 57.854164 86.925 58.385414Q87.26875 58.90104 87.45625 59.65104Q87.64375 60.40104 87.64375 61.68229Q87.64375 63.197914 87.33125 64.11979Q87.03438 65.041664 86.40938 65.55729Q85.8 66.05729 84.84688 66.05729Q83.6125 66.05729 82.89375 65.166664Q82.05 64.104164 82.05 61.68229ZM83.12813 61.68229Q83.12813 63.791664 83.62813 64.49479Q84.12813 65.197914 84.84688 65.197914Q85.58125 65.197914 86.06563 64.49479Q86.56563 63.791664 86.56563 61.68229Q86.56563 59.55729 86.06563 58.86979Q85.58125 58.166664 84.83125 58.166664Q84.1125 58.166664 83.675 58.77604Q83.12813 59.55729 83.12813 61.68229Z" fill-rule="nonzero"/><path fill="#000000" d="M148.9472 347.0125L149.97845 346.8719Q150.0097 347.85626 150.33783 348.21564Q150.66595 348.575 151.2597 348.575Q151.68158 348.575 151.99408 348.3875Q152.30658 348.1844 152.41595 347.85626Q152.54095 347.5125 152.54095 346.77814L152.54095 340.85626L153.66595 340.85626L153.66595 346.71564Q153.66595 347.79376 153.40033 348.3875Q153.15033 348.98126 152.58783 349.29376Q152.02533 349.59064 151.2597 349.59064Q150.1347 349.59064 149.52533 348.95Q148.93158 348.29376 148.9472 347.0125ZM159.46283 348.6844Q158.86908 349.1844 158.3222 349.3875Q157.79095 349.59064 157.16595 349.59064Q156.1347 349.59064 155.58783 349.09064Q155.04095 348.59064 155.04095 347.8094Q155.04095 347.35626 155.24408 346.98126Q155.4472 346.59064 155.79095 346.3719Q156.1347 346.1375 156.55658 346.02814Q156.85345 345.9344 157.49408 345.85626Q158.7597 345.71564 159.36908 345.4969Q159.36908 345.27814 159.36908 345.23126Q159.36908 344.575 159.0722 344.3094Q158.66595 343.96564 157.86908 343.96564Q157.1347 343.96564 156.77533 344.23126Q156.41595 344.48126 156.24408 345.1375L155.21283 344.9969Q155.35345 344.34064 155.68158 343.9344Q156.0097 343.52814 156.61908 343.3094Q157.22845 343.09064 158.02533 343.09064Q158.8222 343.09064 159.3222 343.27814Q159.8222 343.46564 160.05658 343.7469Q160.29095 344.02814 160.3847 344.46564Q160.43158 344.73126 160.43158 345.4344L160.43158 346.84064Q160.43158 348.3094 160.49408 348.7Q160.5722 349.09064 160.77533 349.45L159.66595 349.45Q159.5097 349.1219 159.46283 348.6844ZM159.36908 346.325Q158.79095 346.5594 157.65033 346.73126Q156.99408 346.825 156.72845 346.95Q156.46283 347.0594 156.30658 347.27814Q156.16595 347.4969 156.16595 347.77814Q156.16595 348.2 156.47845 348.48126Q156.80658 348.7625 157.41595 348.7625Q158.02533 348.7625 158.49408 348.4969Q158.97845 348.23126 159.1972 347.7625Q159.36908 347.40314 159.36908 346.71564L159.36908 346.325ZM162.40033 349.45L162.40033 343.23126L163.33783 343.23126L163.33783 344.10626Q164.02533 343.09064 165.3222 343.09064Q165.8847 343.09064 166.35345 343.29376Q166.83783 343.4969 167.0722 343.825Q167.30658 344.15314 167.40033 344.59064Q167.4472 344.8875 167.4472 345.6219L167.4472 349.45L166.40033 349.45L166.40033 345.66876Q166.40033 345.0125 166.27533 344.7Q166.15033 344.3875 165.83783 344.2Q165.52533 343.9969 165.10345 343.9969Q164.43158 343.9969 163.93158 344.4344Q163.4472 344.85626 163.4472 346.04376L163.4472 349.45L162.40033 349.45ZM173.47845 349.45L173.47845 348.52814Q172.74408 349.59064 171.49408 349.59064Q170.9472 349.59064 170.46283 349.3875Q169.99408 349.16876 169.7597 348.85626Q169.52533 348.52814 169.43158 348.0594Q169.36908 347.7625 169.36908 347.075L169.36908 343.23126L170.43158 343.23126L170.43158 346.6844Q170.43158 347.4969 170.49408 347.79376Q170.58783 348.2 170.90033 348.45Q171.22845 348.6844 171.71283 348.6844Q172.18158 348.6844 172.58783 348.45Q173.0097 348.2 173.18158 347.77814Q173.36908 347.35626 173.36908 346.5594L173.36908 343.23126L174.41595 343.23126L174.41595 349.45L173.47845 349.45ZM180.46283 348.6844Q179.86908 349.1844 179.3222 349.3875Q178.79095 349.59064 178.16595 349.59064Q177.1347 349.59064 176.58783 349.09064Q176.04095 348.59064 176.04095 347.8094Q176.04095 347.35626 176.24408 346.98126Q176.4472 346.59064 176.79095 346.3719Q177.1347 346.1375 177.55658 346.02814Q177.85345 345.9344 178.49408 345.85626Q179.7597 345.71564 180.36908 345.4969Q180.36908 345.27814 180.36908 345.23126Q180.36908 344.575 180.0722 344.3094Q179.66595 343.96564 178.86908 343.96564Q178.1347 343.96564 177.77533 344.23126Q177.41595 344.48126 177.24408 345.1375L176.21283 344.9969Q176.35345 344.34064 176.68158 343.9344Q177.0097 343.52814 177.61908 343.3094Q178.22845 343.09064 179.02533 343.09064Q179.8222 343.09064 180.3222 343.27814Q180.8222 343.46564 181.05658 343.7469Q181.29095 344.02814 181.3847 344.46564Q181.43158 344.73126 181.43158 345.4344L181.43158 346.84064Q181.43158 348.3094 181.49408 348.7Q181.5722 349.09064 181.77533 349.45L180.66595 349.45Q180.5097 349.1219 180.46283 348.6844ZM180.36908 346.325Q179.79095 346.5594 178.65033 346.73126Q177.99408 346.825 177.72845 346.95Q177.46283 347.0594 177.30658 347.27814Q177.16595 347.4969 177.16595 347.77814Q177.16595 348.2 177.47845 348.48126Q177.80658 348.7625 178.41595 348.7625Q179.02533 348.7625 179.49408 348.4969Q179.97845 348.23126 180.1972 347.7625Q180.36908 347.40314 180.36908 346.71564L180.36908 346.325ZM183.3847 349.45L183.3847 343.23126L184.33783 343.23126L184.33783 344.16876Q184.6972 343.5125 184.99408 343.3094Q185.30658 343.09064 185.68158 343.09064Q186.21283 343.09064 186.7597 343.41876L186.40033 344.40314Q186.0097 344.16876 185.6347 344.16876Q185.27533 344.16876 184.99408 344.3875Q184.72845 344.59064 184.61908 344.96564Q184.43158 345.52814 184.43158 346.1844L184.43158 349.45L183.3847 349.45ZM187.35345 351.84064L187.22845 350.85626Q187.5722 350.95 187.83783 350.95Q188.18158 350.95 188.3847 350.825Q188.60345 350.71564 188.74408 350.5125Q188.83783 350.34064 189.0722 349.71564Q189.08783 349.6375 189.16595 349.46564L186.79095 343.23126L187.93158 343.23126L189.22845 346.825Q189.47845 347.5125 189.68158 348.27814Q189.86908 347.54376 190.11908 346.85626L191.4472 343.23126L192.49408 343.23126L190.1347 349.5594Q189.74408 350.575 189.54095 350.96564Q189.2597 351.4969 188.8847 351.73126Q188.52533 351.98126 188.02533 351.98126Q187.72845 351.98126 187.35345 351.84064Z" fill-rule="nonzero"/><path fill="#000000" d="M259.01886 349.45L259.01886 340.85626L264.81573 340.85626L264.81573 341.8719L260.1595 341.8719L260.1595 344.52814L264.19073 344.52814L264.19073 345.54376L260.1595 345.54376L260.1595 349.45L259.01886 349.45ZM270.08136 347.45L271.1751 347.575Q270.9251 348.52814 270.222 349.0594Q269.51886 349.59064 268.44073 349.59064Q267.08136 349.59064 266.26886 348.7469Q265.472 347.90314 265.472 346.3875Q265.472 344.825 266.2845 343.96564Q267.097 343.09064 268.37823 343.09064Q269.62823 343.09064 270.4095 343.9344Q271.20636 344.77814 271.20636 346.325Q271.20636 346.41876 271.20636 346.60626L266.56573 346.60626Q266.62823 347.6375 267.14386 348.1844Q267.6595 348.71564 268.44073 348.71564Q269.01886 348.71564 269.4251 348.41876Q269.847 348.10626 270.08136 347.45ZM266.62823 345.7469L270.097 345.7469Q270.0345 344.95 269.70636 344.5594Q269.19073 343.95 268.39386 343.95Q267.6595 343.95 267.1595 344.4344Q266.6751 344.91876 266.62823 345.7469ZM273.8001 349.45L272.81573 349.45L272.81573 340.85626L273.87823 340.85626L273.87823 343.91876Q274.5501 343.09064 275.58136 343.09064Q276.1595 343.09064 276.6595 343.325Q277.1751 343.54376 277.50323 343.96564Q277.847 344.3875 278.0345 344.98126Q278.222 345.575 278.222 346.2469Q278.222 347.84064 277.4251 348.71564Q276.62823 349.59064 275.5345 349.59064Q274.4251 349.59064 273.8001 348.66876L273.8001 349.45ZM273.7845 346.29376Q273.7845 347.40314 274.097 347.90314Q274.597 348.71564 275.44073 348.71564Q276.12823 348.71564 276.62823 348.1219Q277.14386 347.52814 277.14386 346.325Q277.14386 345.10626 276.6595 344.52814Q276.1751 343.95 275.4876 343.95Q274.8001 343.95 274.2845 344.5594Q273.7845 345.15314 273.7845 346.29376ZM279.81573 349.45L279.81573 343.23126L280.76886 343.23126L280.76886 344.16876Q281.12823 343.5125 281.4251 343.3094Q281.7376 343.09064 282.1126 343.09064Q282.64386 343.09064 283.19073 343.41876L282.83136 344.40314Q282.44073 344.16876 282.06573 344.16876Q281.70636 344.16876 281.4251 344.3875Q281.1595 344.59064 281.0501 344.96564Q280.8626 345.52814 280.8626 346.1844L280.8626 349.45L279.81573 349.45ZM287.9095 349.45L287.9095 348.52814Q287.1751 349.59064 285.9251 349.59064Q285.37823 349.59064 284.89386 349.3875Q284.4251 349.16876 284.19073 348.85626Q283.95636 348.52814 283.8626 348.0594Q283.8001 347.7625 283.8001 347.075L283.8001 343.23126L284.8626 343.23126L284.8626 346.6844Q284.8626 347.4969 284.9251 347.79376Q285.01886 348.2 285.33136 348.45Q285.6595 348.6844 286.14386 348.6844Q286.6126 348.6844 287.01886 348.45Q287.44073 348.2 287.6126 347.77814Q287.8001 347.35626 287.8001 346.5594L287.8001 343.23126L288.847 343.23126L288.847 349.45L287.9095 349.45ZM294.89386 348.6844Q294.3001 349.1844 293.75323 349.3875Q293.222 349.59064 292.597 349.59064Q291.56573 349.59064 291.01886 349.09064Q290.472 348.59064 290.472 347.8094Q290.472 347.35626 290.6751 346.98126Q290.87823 346.59064 291.222 346.3719Q291.56573 346.1375 291.9876 346.02814Q292.2845 345.9344 292.9251 345.85626Q294.19073 345.71564 294.8001 345.4969Q294.8001 345.27814 294.8001 345.23126Q294.8001 344.575 294.50323 344.3094Q294.097 343.96564 293.3001 343.96564Q292.56573 343.96564 292.20636 344.23126Q291.847 344.48126 291.6751 345.1375L290.64386 344.9969Q290.7845 344.34064 291.1126 343.9344Q291.44073 343.52814 292.0501 343.3094Q292.6595 343.09064 293.45636 343.09064Q294.25323 343.09064 294.75323 343.27814Q295.25323 343.46564 295.4876 343.7469Q295.722 344.02814 295.81573 344.46564Q295.8626 344.73126 295.8626 345.4344L295.8626 346.84064Q295.8626 348.3094 295.9251 348.7Q296.00323 349.09064 296.20636 349.45L295.097 349.45Q294.94073 349.1219 294.89386 348.6844ZM294.8001 346.325Q294.222 346.5594 293.08136 346.73126Q292.4251 346.825 292.1595 346.95Q291.89386 347.0594 291.7376 347.27814Q291.597 347.4969 291.597 347.77814Q291.597 348.2 291.9095 348.48126Q292.2376 348.7625 292.847 348.7625Q293.45636 348.7625 293.9251 348.4969Q294.4095 348.23126 294.62823 347.7625Q294.8001 347.40314 294.8001 346.71564L294.8001 346.325ZM297.81573 349.45L297.81573 343.23126L298.76886 343.23126L298.76886 344.16876Q299.12823 343.5125 299.4251 343.3094Q299.7376 343.09064 300.1126 343.09064Q300.64386 343.09064 301.19073 343.41876L300.83136 344.40314Q300.44073 344.16876 300.06573 344.16876Q299.70636 344.16876 299.4251 344.3875Q299.1595 344.59064 299.0501 344.96564Q298.8626 345.52814 298.8626 346.1844L298.8626 349.45L297.81573 349.45ZM301.7845 351.84064L301.6595 350.85626Q302.00323 350.95 302.26886 350.95Q302.6126 350.95 302.81573 350.825Q303.0345 350.71564 303.1751 350.5125Q303.26886 350.34064 303.50323 349.71564Q303.51886 349.6375 303.597 349.46564L301.222 343.23126L302.3626 343.23126L303.6595 346.825Q303.9095 347.5125 304.1126 348.27814Q304.3001 347.54376 304.5501 346.85626L305.87823 343.23126L306.9251 343.23126L304.56573 349.5594Q304.1751 350.575 303.972 350.96564Q303.69073 351.4969 303.31573 351.73126Q302.95636 351.98126 302.45636 351.98126Q302.1595 351.98126 301.7845 351.84064Z" fill-rule="nonzero"/><path fill="#000000" d="M378.35614 349.45L378.35614 340.85626L380.0749 340.85626L382.10614 346.9344Q382.3874 347.79376 382.5124 348.21564Q382.653 347.7469 382.9655 346.84064L385.028 340.85626L386.55927 340.85626L386.55927 349.45L385.4655 349.45L385.4655 342.2625L382.9655 349.45L381.93427 349.45L379.4499 342.1375L379.4499 349.45L378.35614 349.45ZM391.3249 348.6844Q390.73114 349.1844 390.18427 349.3875Q389.653 349.59064 389.028 349.59064Q387.99677 349.59064 387.4499 349.09064Q386.903 348.59064 386.903 347.8094Q386.903 347.35626 387.10614 346.98126Q387.30927 346.59064 387.653 346.3719Q387.99677 346.1375 388.41864 346.02814Q388.7155 345.9344 389.35614 345.85626Q390.62177 345.71564 391.23114 345.4969Q391.23114 345.27814 391.23114 345.23126Q391.23114 344.575 390.93427 344.3094Q390.528 343.96564 389.73114 343.96564Q388.99677 343.96564 388.6374 344.23126Q388.278 344.48126 388.10614 345.1375L387.0749 344.9969Q387.2155 344.34064 387.54364 343.9344Q387.87177 343.52814 388.48114 343.3094Q389.0905 343.09064 389.8874 343.09064Q390.68427 343.09064 391.18427 343.27814Q391.68427 343.46564 391.91864 343.7469Q392.153 344.02814 392.24677 344.46564Q392.29364 344.73126 392.29364 345.4344L392.29364 346.84064Q392.29364 348.3094 392.35614 348.7Q392.43427 349.09064 392.6374 349.45L391.528 349.45Q391.37177 349.1219 391.3249 348.6844ZM391.23114 346.325Q390.653 346.5594 389.5124 346.73126Q388.85614 346.825 388.5905 346.95Q388.3249 347.0594 388.16864 347.27814Q388.028 347.4969 388.028 347.77814Q388.028 348.2 388.3405 348.48126Q388.66864 348.7625 389.278 348.7625Q389.8874 348.7625 390.35614 348.4969Q390.8405 348.23126 391.05927 347.7625Q391.23114 347.40314 391.23114 346.71564L391.23114 346.325ZM394.24677 349.45L394.24677 343.23126L395.1999 343.23126L395.1999 344.16876Q395.55927 343.5125 395.85614 343.3094Q396.16864 343.09064 396.54364 343.09064Q397.0749 343.09064 397.62177 343.41876L397.2624 344.40314Q396.87177 344.16876 396.49677 344.16876Q396.1374 344.16876 395.85614 344.3875Q395.5905 344.59064 395.48114 344.96564Q395.29364 345.52814 395.29364 346.1844L395.29364 349.45L394.24677 349.45ZM402.3249 347.16876L403.35614 347.3094Q403.18427 348.3719 402.48114 348.98126Q401.778 349.59064 400.7624 349.59064Q399.48114 349.59064 398.6999 348.7625Q397.93427 347.91876 397.93427 346.35626Q397.93427 345.35626 398.2624 344.60626Q398.60614 343.84064 399.278 343.46564Q399.9655 343.09064 400.778 343.09064Q401.778 343.09064 402.41864 343.60626Q403.0749 344.10626 403.2624 345.0594L402.23114 345.21564Q402.0905 344.59064 401.7155 344.27814Q401.3405 343.95 400.80927 343.95Q400.0124 343.95 399.5124 344.52814Q399.0124 345.09064 399.0124 346.325Q399.0124 347.59064 399.49677 348.15314Q399.98114 348.71564 400.74677 348.71564Q401.37177 348.71564 401.778 348.34064Q402.1999 347.96564 402.3249 347.16876ZM404.2624 349.45L404.2624 340.85626L405.30927 340.85626L405.30927 343.9344Q406.04364 343.09064 407.16864 343.09064Q407.87177 343.09064 408.37177 343.3719Q408.8874 343.6375 409.10614 344.1219Q409.3249 344.59064 409.3249 345.5125L409.3249 349.45L408.278 349.45L408.278 345.5125Q408.278 344.71564 407.93427 344.35626Q407.5905 343.9969 406.9655 343.9969Q406.49677 343.9969 406.0749 344.2469Q405.66864 344.48126 405.48114 344.90314Q405.30927 345.3094 405.30927 346.04376L405.30927 349.45L404.2624 349.45Z" fill-rule="nonzero"/><path fill="#000000" d="M493.88092 349.45L497.1778 340.85626L498.39655 340.85626L501.91217 349.45L500.63092 349.45L499.6153 346.84064L496.03717 346.84064L495.08405 349.45L493.88092 349.45ZM496.3653 345.91876L499.27155 345.91876L498.38092 343.54376Q497.95905 342.46564 497.77155 341.7625Q497.59967 342.59064 497.3028 343.40314L496.3653 345.91876ZM501.69342 351.84064L501.69342 343.23126L502.64655 343.23126L502.64655 344.02814Q502.9903 343.5594 503.41217 343.325Q503.84967 343.09064 504.45905 343.09064Q505.25592 343.09064 505.8653 343.4969Q506.47467 343.90314 506.77155 344.65314Q507.08405 345.40314 507.08405 346.29376Q507.08405 347.2469 506.7403 348.0125Q506.41217 348.77814 505.75592 349.1844Q505.09967 349.59064 504.38092 349.59064Q503.84967 349.59064 503.4278 349.3719Q503.00592 349.1375 502.7403 348.8094L502.7403 351.84064L501.69342 351.84064ZM502.64655 346.3719Q502.64655 347.575 503.13092 348.15314Q503.6153 348.71564 504.3028 348.71564Q505.00592 348.71564 505.50592 348.1219Q506.00592 347.52814 506.00592 346.27814Q506.00592 345.09064 505.52155 344.5125Q505.03717 343.91876 504.34967 343.91876Q503.6778 343.91876 503.16217 344.54376Q502.64655 345.16876 502.64655 346.3719ZM508.6778 349.45L508.6778 343.23126L509.63092 343.23126L509.63092 344.16876Q509.9903 343.5125 510.28717 343.3094Q510.59967 343.09064 510.97467 343.09064Q511.50592 343.09064 512.0528 343.41876L511.69342 344.40314Q511.3028 344.16876 510.9278 344.16876Q510.56842 344.16876 510.28717 344.3875Q510.02155 344.59064 509.91217 344.96564Q509.72467 345.52814 509.72467 346.1844L509.72467 349.45L508.6778 349.45ZM512.6934 342.075L512.6934 340.85626L513.7559 340.85626L513.7559 342.075L512.6934 342.075ZM512.6934 349.45L512.6934 343.23126L513.7559 343.23126L513.7559 349.45L512.6934 349.45ZM515.6622 349.45L515.6622 340.85626L516.7247 340.85626L516.7247 349.45L515.6622 349.45Z" fill-rule="nonzero"/><path fill="#757575" d="M20.128124 37.55L20.128124 23.2375L26.471874 23.2375Q28.378124 23.2375 29.378124 23.628124Q30.378124 24.003124 30.971874 24.9875Q31.565624 25.95625 31.565624 27.14375Q31.565624 28.659374 30.58125 29.70625Q29.596874 30.753124 27.534374 31.034374Q28.284374 31.39375 28.675 31.753124Q29.503124 32.503124 30.253124 33.659374L32.7375 37.55L30.3625 37.55L28.45625 34.565624Q27.628124 33.284374 27.096874 32.596874Q26.565624 31.909374 26.128124 31.64375Q25.70625 31.3625 25.26875 31.253124Q24.940624 31.190624 24.221874 31.190624L22.01875 31.190624L22.01875 37.55L20.128124 37.55ZM22.01875 29.55L26.096874 29.55Q27.39375 29.55 28.1125 29.284374Q28.846874 29.01875 29.221874 28.425Q29.6125 27.83125 29.6125 27.14375Q29.6125 26.128124 28.878124 25.471874Q28.14375 24.815624 26.55 24.815624L22.01875 24.815624L22.01875 29.55ZM40.971874 34.20625L42.784374 34.440624Q42.3625 36.01875 41.190624 36.909374Q40.034374 37.784374 38.221874 37.784374Q35.95625 37.784374 34.6125 36.39375Q33.284374 34.9875 33.284374 32.45625Q33.284374 29.83125 34.628124 28.39375Q35.971874 26.940624 38.128124 26.940624Q40.20625 26.940624 41.51875 28.3625Q42.846874 29.76875 42.846874 32.346874Q42.846874 32.503124 42.83125 32.815624L35.096874 32.815624Q35.190624 34.51875 36.065624 35.425Q36.940624 36.33125 38.2375 36.33125Q39.20625 36.33125 39.878124 35.83125Q40.565624 35.315624 40.971874 34.20625ZM35.190624 31.3625L40.9875 31.3625Q40.878124 30.065624 40.33125 29.409374Q39.4875 28.39375 38.14375 28.39375Q36.940624 28.39375 36.1125 29.20625Q35.284374 30.003124 35.190624 31.3625ZM47.753124 37.55L43.8 27.175L45.659374 27.175L47.89375 33.39375Q48.253124 34.39375 48.55 35.471874Q48.784374 34.659374 49.20625 33.503124L51.503124 27.175L53.315624 27.175L49.39375 37.55L47.753124 37.55ZM60.971874 34.20625L62.784374 34.440624Q62.3625 36.01875 61.190624 36.909374Q60.034374 37.784374 58.221874 37.784374Q55.95625 37.784374 54.6125 36.39375Q53.284374 34.9875 53.284374 32.45625Q53.284374 29.83125 54.628124 28.39375Q55.971874 26.940624 58.128124 26.940624Q60.20625 26.940624 61.51875 28.3625Q62.846874 29.76875 62.846874 32.346874Q62.846874 32.503124 62.83125 32.815624L55.096874 32.815624Q55.190624 34.51875 56.065624 35.425Q56.940624 36.33125 58.2375 36.33125Q59.20625 36.33125 59.878124 35.83125Q60.565624 35.315624 60.971874 34.20625ZM55.190624 31.3625L60.9875 31.3625Q60.878124 30.065624 60.33125 29.409374Q59.4875 28.39375 58.14375 28.39375Q56.940624 28.39375 56.1125 29.20625Q55.284374 30.003124 55.190624 31.3625ZM64.8625 37.55L64.8625 27.175L66.45625 27.175L66.45625 28.659374Q67.59688 26.940624 69.75313 26.940624Q70.69063 26.940624 71.47188 27.284374Q72.26875 27.6125 72.65938 28.159374Q73.05 28.70625 73.20625 29.45625Q73.3 29.95625 73.3 31.175L73.3 37.55L71.53438 37.55L71.53438 31.2375Q71.53438 30.159374 71.33125 29.628124Q71.12813 29.096874 70.59688 28.784374Q70.08125 28.471874 69.37813 28.471874Q68.25313 28.471874 67.44063 29.190624Q66.62813 29.89375 66.62813 31.878124L66.62813 37.55L64.8625 37.55ZM81.65938 37.55L81.65938 36.01875Q80.45625 37.784374 78.37813 37.784374Q77.45625 37.784374 76.65938 37.440624Q75.8625 37.08125 75.47188 36.55Q75.09688 36.01875 74.94063 35.2375Q74.83125 34.721874 74.83125 33.596874L74.83125 27.175L76.58125 27.175L76.58125 32.925Q76.58125 34.3 76.69063 34.784374Q76.8625 35.471874 77.39375 35.878124Q77.94063 36.26875 78.72188 36.26875Q79.51875 36.26875 80.20625 35.8625Q80.90938 35.45625 81.19063 34.76875Q81.4875 34.065624 81.4875 32.7375L81.4875 27.175L83.2375 27.175L83.2375 37.55L81.65938 37.55ZM91.97188 34.20625L93.78438 34.440624Q93.3625 36.01875 92.19063 36.909374Q91.03438 37.784374 89.22188 37.784374Q86.95625 37.784374 85.6125 36.39375Q84.28438 34.9875 84.28438 32.45625Q84.28438 29.83125 85.62813 28.39375Q86.97188 26.940624 89.12813 26.940624Q91.20625 26.940624 92.51875 28.3625Q93.84688 29.76875 93.84688 32.346874Q93.84688 32.503124 93.83125 32.815624L86.09688 32.815624Q86.19063 34.51875 87.06563 35.425Q87.94063 36.33125 89.2375 36.33125Q90.20625 36.33125 90.87813 35.83125Q91.56563 35.315624 91.97188 34.20625ZM86.19063 31.3625L91.9875 31.3625Q91.87813 30.065624 91.33125 29.409374Q90.4875 28.39375 89.14375 28.39375Q87.94063 28.39375 87.1125 29.20625Q86.28438 30.003124 86.19063 31.3625ZM103.4875 37.55L101.8625 37.55L101.8625 23.2375L103.6125 23.2375L103.6125 28.346874Q104.7375 26.940624 106.45625 26.940624Q107.40938 26.940624 108.26875 27.33125Q109.12813 27.721874 109.675 28.425Q110.22188 29.1125 110.53438 30.096874Q110.84688 31.08125 110.84688 32.20625Q110.84688 34.878124 109.53438 36.33125Q108.22188 37.784374 106.37813 37.784374Q104.53438 37.784374 103.4875 36.253124L103.4875 37.55ZM103.47188 32.284374Q103.47188 34.14375 103.97188 34.9875Q104.81563 36.33125 106.22188 36.33125Q107.37813 36.33125 108.20625 35.33125Q109.05 34.33125 109.05 32.346874Q109.05 30.315624 108.2375 29.3625Q107.44063 28.39375 106.3 28.39375Q105.14375 28.39375 104.3 29.39375Q103.47188 30.39375 103.47188 32.284374ZM112.78438 41.55L112.59688 39.89375Q113.175 40.05 113.59688 40.05Q114.19063 40.05 114.53438 39.846874Q114.89375 39.659374 115.1125 39.315624Q115.28438 39.05 115.65938 38.003124Q115.70625 37.846874 115.81563 37.565624L111.87813 27.175L113.76875 27.175L115.925 33.190624Q116.34688 34.33125 116.675 35.58125Q116.9875 34.378124 117.39375 33.221874L119.6125 27.175L121.37813 27.175L117.425 37.721874Q116.8 39.440624 116.44063 40.08125Q115.97188 40.95625 115.3625 41.346874Q114.76875 41.753124 113.925 41.753124Q113.40938 41.753124 112.78438 41.55ZM129.03438 37.55L129.03438 23.2375L131.89375 23.2375L135.26875 33.3625Q135.7375 34.784374 135.95625 35.4875Q136.20625 34.70625 136.72188 33.190624L140.14375 23.2375L142.69063 23.2375L142.69063 37.55L140.87813 37.55L140.87813 25.565624L136.70625 37.55L135.00313 37.55L130.8625 25.3625L130.8625 37.55L129.03438 37.55ZM145.22188 32.3625Q145.22188 29.4875 146.81563 28.096874Q148.15938 26.940624 150.08125 26.940624Q152.22188 26.940624 153.56563 28.346874Q154.925 29.753124 154.925 32.221874Q154.925 34.221874 154.33125 35.378124Q153.7375 36.51875 152.58125 37.159374Q151.44063 37.784374 150.08125 37.784374Q147.89375 37.784374 146.55 36.39375Q145.22188 34.9875 145.22188 32.3625ZM147.01875 32.3625Q147.01875 34.3625 147.87813 35.346874Q148.75313 36.33125 150.08125 36.33125Q151.39375 36.33125 152.25313 35.346874Q153.12813 34.346874 153.12813 32.3Q153.12813 30.378124 152.25313 29.39375Q151.37813 28.39375 150.08125 28.39375Q148.75313 28.39375 147.87813 29.39375Q147.01875 30.378124 147.01875 32.3625ZM156.8625 37.55L156.8625 27.175L158.45625 27.175L158.45625 28.659374Q159.59688 26.940624 161.75313 26.940624Q162.69063 26.940624 163.47188 27.284374Q164.26875 27.6125 164.65938 28.159374Q165.05 28.70625 165.20625 29.45625Q165.3 29.95625 165.3 31.175L165.3 37.55L163.53438 37.55L163.53438 31.2375Q163.53438 30.159374 163.33125 29.628124Q163.12813 29.096874 162.59688 28.784374Q162.08125 28.471874 161.37813 28.471874Q160.25313 28.471874 159.44063 29.190624Q158.62813 29.89375 158.62813 31.878124L158.62813 37.55L156.8625 37.55ZM170.70625 35.971874L170.95625 37.534374Q170.22188 37.690624 169.62813 37.690624Q168.675 37.690624 168.14375 37.39375Q167.62813 37.08125 167.40938 36.596874Q167.19063 36.096874 167.19063 34.51875L167.19063 28.55L165.90938 28.55L165.90938 27.175L167.19063 27.175L167.19063 24.6125L168.94063 23.55L168.94063 27.175L170.70625 27.175L170.70625 28.55L168.94063 28.55L168.94063 34.6125Q168.94063 35.3625 169.03438 35.58125Q169.12813 35.784374 169.33125 35.925Q169.55 36.05 169.94063 36.05Q170.22188 36.05 170.70625 35.971874ZM172.8625 37.55L172.8625 23.2375L174.62813 23.2375L174.62813 28.3625Q175.8625 26.940624 177.7375 26.940624Q178.87813 26.940624 179.72188 27.39375Q180.58125 27.846874 180.94063 28.659374Q181.31563 29.45625 181.31563 30.971874L181.31563 37.55L179.56563 37.55L179.56563 30.971874Q179.56563 29.659374 178.9875 29.065624Q178.40938 28.45625 177.37813 28.45625Q176.59688 28.45625 175.89375 28.8625Q175.20625 29.26875 174.90938 29.971874Q174.62813 30.659374 174.62813 31.878124L174.62813 37.55L172.8625 37.55Z" fill-rule="nonzero"/></svg>